HIERARCHY
ROOT Hips
{
  OFFSET -31.5692 30.0904 122.763
  CHANNELS 6 Xposition Yposition Zposition Zrotation Xrotation Yrotation
  JOINT LeftUpLeg
  {
    OFFSET 8.64259 1.95398 -2.38835
    CHANNELS 3 Zrotation Xrotation Yrotation
    JOINT LeftLeg
    {
      OFFSET 43.7702 0 0
      CHANNELS 3 Zrotation Xrotation Yrotation
      JOINT LeftFoot
      {
        OFFSET 40.6238 0 0
        CHANNELS 3 Zrotation Xrotation Yrotation
        JOINT LeftToeBase
        {
          OFFSET 12.7242 0 0
          CHANNELS 3 Zrotation Xrotation Yrotation
          End Site
          {
            OFFSET 0 0 0
          }
        }
      }
    }
  }
  JOINT RightUpLeg
  {
    OFFSET -8.2249 1.95398 -2.59336
    CHANNELS 3 Zrotation Xrotation Yrotation
    JOINT RightLeg
    {
      OFFSET 43.5653 0 0
      CHANNELS 3 Zrotation Xrotation Yrotation
      JOINT RightFoot
      {
        OFFSET 40.6238 0 0
        CHANNELS 3 Zrotation Xrotation Yrotation
        JOINT RightToeBase
        {
          OFFSET 12.7242 0 0
          CHANNELS 3 Zrotation Xrotation Yrotation
          End Site
          {
            OFFSET 0 0 0
          }
        }
      }
    }
  }
  JOINT Spine
  {
    OFFSET 0.165834 0.87714 6.61349
    CHANNELS 3 Zrotation Xrotation Yrotation
    JOINT Spine1
    {
      OFFSET 7.38963 1.71661e-005 0
      CHANNELS 3 Zrotation Xrotation Yrotation
      JOINT Spine2
      {
        OFFSET 11.9445 1.14441e-005 0
        CHANNELS 3 Zrotation Xrotation Yrotation
        JOINT Spine3
        {
          OFFSET 14.7254 4.19617e-005 0
          CHANNELS 3 Zrotation Xrotation Yrotation
          JOINT Spine4
          {
            OFFSET 10.9679 0 0
            CHANNELS 3 Zrotation Xrotation Yrotation
            JOINT RightShoulder
            {
              OFFSET 2.46616 -1.6653 3.69651
              CHANNELS 3 Zrotation Xrotation Yrotation
              JOINT RightArm
              {
                OFFSET 13.0012 0 0
                CHANNELS 3 Zrotation Xrotation Yrotation
                JOINT RightForeArm
                {
                  OFFSET 28.7848 1.62311e-005 0
                  CHANNELS 3 Zrotation Xrotation Yrotation
                  JOINT RightHand
                  {
                    OFFSET 26.5688 1.62095e-005 0
                    CHANNELS 3 Zrotation Xrotation Yrotation
                    End Site
                    {
                      OFFSET 0 0 0
                    }
                  }
                }
              }
            }
            JOINT LeftShoulder
            {
              OFFSET 2.38034 -1.29275 -3.7523
              CHANNELS 3 Zrotation Xrotation Yrotation
              JOINT LeftArm
              {
                OFFSET 16.3182 6.07031e-005 0
                CHANNELS 3 Zrotation Xrotation Yrotation
                JOINT LeftForeArm
                {
                  OFFSET 27.0901 0 0
                  CHANNELS 3 Zrotation Xrotation Yrotation
                  JOINT LeftHand
                  {
                    OFFSET 24.5451 1.51738e-005 0
                    CHANNELS 3 Zrotation Xrotation Yrotation
                    End Site
                    {
                      OFFSET 0 0 0
                    }
                  }
                }
              }
            }
            JOINT Neck
            {
              OFFSET 5.0226 -0.0266342 0
              CHANNELS 3 Zrotation Xrotation Yrotation
              JOINT Head
              {
                OFFSET 6.69364 2.86102e-005 0
                CHANNELS 3 Zrotation Xrotation Yrotation
                End Site
                {
                  OFFSET 0 0 0
                }
              }
            }
          }
        }
      }
    }
  }
}
MOTION
Frames:	13
Frame Time:	0.0416667
15.0877 101.636 17.4062 172.918 -81.0931 171.661 -173.355 -5.78446 89.6259 -12.358 12.3 0.835178 69.9793 6.44068 -2.40794 18.6121 -8.92635 8.4922 171.387 -6.90841 88.0153 -12.84 -8.79311 -1.00303 68.3277 -4.90784 1.75558 26.7494 0.308423 2.88742 0.143147 7.90799 -90.0851 11.0581 0.245563 -0.192907 -0.612856 0.23683 -0.203535 -23.1481 0.292183 -0.110189 -3.13546 0.292183 -0.110192 89.5944 -30.443 -107.388 37.8566 -7.07248 -4.48784 5.74965 -30.8664 -14.477 -22.4684 -0.507947 -8.18245 -88.6102 -52.051 81.1936 -20.0071 14.5573 -12.2201 -6.74559 19.7327 -0.0150391 6.97195 -0.593575 -17.5179 0.812942 -2.73301 -1.88489 -4.45726 -2.43493 0.997637 
15.148 101.639 17.4831 173.433 -81.0419 172.155 -173.401 -5.99862 89.5409 -12.2281 12.0258 0.868426 70.1521 6.53731 -2.54865 18.2509 -8.98444 8.15941 171.449 -6.84477 87.9596 -13.3318 -11.3925 -1.26869 67.327 -4.35411 1.04947 28.6776 -0.0406372 0.448116 0.159992 7.90735 -90.0913 11.0594 0.276164 -0.208356 -0.611528 0.266724 -0.220319 -23.1469 0.326009 -0.115727 -3.13422 0.32601 -0.115732 89.5728 -30.416 -107.441 37.8281 -6.6589 -4.3375 5.58557 -31.5507 -14.2465 -23.687 -0.32599 -9.32517 -88.7673 -52.2704 81.0041 -20.0693 14.059 -12.5512 -6.28425 19.9716 -0.0150618 7.1884 -0.635523 -17.8371 1.08293 -2.56234 -1.02825 -5.07942 -2.37497 -0.480524 
15.1324 101.636 17.55 173.231 -81.1501 171.836 -173.475 -6.07847 89.4005 -11.9812 12.15 0.871236 70.0726 6.55813 -2.31432 18.4771 -8.90506 8.27952 171.402 -6.63277 87.8467 -13.5891 -10.9717 -1.26831 67.6575 -4.48114 1.31976 28.428 0.037117 0.619342 0.145262 7.8971 -90.0983 11.0798 0.243567 -0.219221 -0.591099 0.233685 -0.229733 -23.1264 0.298195 -0.135886 -3.11372 0.298194 -0.135886 89.5575 -30.0954 -107.597 38.1126 -6.87908 -4.22286 5.86122 -31.3486 -14.0511 -25.0654 -0.449088 -8.40646 -88.7418 -52.5478 81.0928 -19.8809 14.1225 -12.549 -6.34735 19.8387 -0.0150491 6.9248 -0.60892 -17.9054 1.26335 -2.47147 -0.785677 -5.29567 -2.31886 -0.439491 
15.1351 101.634 17.6249 172.272 -81.1959 170.81 -173.537 -6.10332 89.3232 -11.8988 12.1487 0.904627 70.1194 6.56796 -2.39154 18.4428 -8.91574 8.25824 171.351 -6.74296 87.7964 -13.3476 -11.0662 -1.25185 67.583 -4.53171 0.895833 28.6343 -0.1366 1.00708 0.124589 7.90352 -90.1116 11.067 0.196309 -0.240943 -0.603989 0.185526 -0.249354 -23.1392 0.259643 -0.170804 -3.12651 0.259651 -0.170806 89.6069 -29.783 -107.623 38.1781 -6.84607 -4.27343 5.78024 -31.4559 -14.1152 -24.1082 -0.337042 -9.17149 -88.6698 -52.9222 81.2661 -19.5357 14.2728 -12.7311 -6.43465 19.8166 -0.0150471 6.9182 -0.556951 -17.3231 1.41301 -2.40888 -0.439255 -5.06049 -2.30681 -0.60935 
15.1462 101.634 17.6523 173.357 -81.3952 171.855 -173.703 -6.05316 89.1416 -11.7183 11.6838 0.995198 70.0871 6.52952 -2.46635 18.3184 -8.9651 8.20405 171.31 -6.47834 87.7202 -13.5017 -11.2554 -1.23424 67.5813 -4.49231 1.18717 28.6339 -0.052948 0.595882 0.138479 7.89247 -90.0993 11.0892 0.229616 -0.219793 -0.581776 0.219722 -0.229685 -23.117 0.28506 -0.140616 -3.10438 0.285047 -0.140624 89.5658 -30.0084 -107.615 38.031 -7.00958 -4.27396 5.82915 -32.0116 -14.2307 -24.5766 -0.510705 -8.25869 -88.5514 -52.6877 81.3956 -19.9986 13.9382 -12.742 -6.08383 19.819 -0.0150473 6.76822 -0.561226 -17.6026 1.78573 -2.49081 -0.582432 -5.66643 -2.3571 -0.774244 
15.0869 101.61 17.7044 175.153 -81.4762 173.568 -173.657 -6.11904 89.1126 -11.6392 11.6985 0.90657 70.0932 6.54267 -2.45585 18.4734 -9.01047 8.49038 171.399 -6.45619 87.7061 -13.4325 -11.4615 -1.362 67.6097 -4.53033 1.18611 28.7662 -0.127415 0.664176 0.165065 7.90095 -90.0832 11.0722 0.290017 -0.193623 -0.598738 0.281216 -0.20621 -23.1341 0.334794 -0.0975105 -3.12148 0.334799 -0.0975187 89.505 -30.2063 -107.657 38.1367 -6.74442 -4.39387 5.68095 -33.2921 -14.0552 -24.4845 -0.483673 -8.70996 -88.5679 -52.6505 81.3649 -19.8594 14.1748 -12.798 -6.34968 19.987 -0.0150633 7.21713 -0.580112 -17.1823 1.67467 -2.53201 -0.988692 -5.12159 -2.34799 -0.163111 
14.935 101.616 17.7953 174.995 -81.5099 173.53 -173.466 -6.08519 89.4201 -11.6543 11.8576 0.846638 70.0804 6.55832 -2.50136 18.6435 -9.0218 8.72818 171.495 -6.55504 87.9389 -13.3755 -11.3918 -1.30678 67.6377 -4.59818 0.725961 28.526 -0.175524 1.4392 0.161276 7.89209 -90.0911 11.09 0.278811 -0.208277 -0.580918 0.26937 -0.220348 -23.1163 0.328512 -0.114854 -3.10362 0.328512 -0.114854 89.5468 -30.397 -107.5 37.9927 -6.95597 -4.30057 5.53724 -33.3356 -14.5443 -24.0891 -0.555057 -8.34707 -88.6254 -52.548 81.2625 -20.0575 14.0174 -12.5453 -6.21237 19.8085 -0.0150463 7.20767 -0.60714 -17.4452 1.37035 -2.57349 -1.65601 -4.94595 -2.301 0.629854 
14.7455 101.62 17.8419 174.276 -81.6806 172.86 -173.211 -5.85075 89.7224 -11.7248 12.1774 0.650385 70.05 6.54544 -2.51169 18.855 -8.88747 8.71875 171.791 -6.44652 88.2638 -13.3846 -11.0644 -1.41073 67.6704 -4.58474 0.62298 28.5538 -0.13948 1.2018 0.156042 7.88574 -90.0966 11.1026 0.265803 -0.218018 -0.568312 0.25595 -0.229514 -23.1036 0.319039 -0.128053 -3.09098 0.319034 -0.128062 89.4992 -30.5817 -107.521 37.7882 -6.9871 -4.2303 5.48441 -32.9476 -14.7123 -24.5282 -0.554949 -8.22177 -88.5885 -52.2798 81.2675 -20.4318 13.9902 -12.5587 -6.38378 19.721 -0.015038 7.32454 -0.637111 -17.5281 1.39028 -2.59887 -1.50647 -5.19723 -2.34263 0.117762 
14.5066 101.6 18.0705 172.414 -81.5846 171.159 -172.88 -5.9829 90.2177 -11.7837 13.01 0.544207 70.1174 6.67479 -2.10241 19.0676 -8.63827 8.47164 171.873 -6.79307 88.5402 -13.2512 -10.422 -1.27387 67.6421 -4.43608 1.25777 29.4197 -0.33905 0.211489 0.129977 7.89426 -90.135 11.0856 0.19612 -0.287711 -0.58539 0.183271 -0.296056 -23.1205 0.273513 -0.215465 -3.10787 0.273521 -0.215459 89.5077 -30.3165 -107.608 38.1305 -6.80118 -4.13887 5.54629 -32.9082 -14.3768 -24.8155 -0.54912 -8.2271 -88.5703 -52.7393 81.3775 -19.6676 14.4408 -12.4603 -6.74421 19.9363 -0.0150584 7.49038 -0.612358 -17.0177 1.30934 -2.57453 -1.38279 -5.15923 -2.34212 0.370633 
14.3343 101.595 18.1626 172.445 -81.7736 171.026 -172.935 -5.92722 90.1397 -11.6504 12.8111 0.551988 70.1486 6.64507 -2.46725 19.0339 -8.77878 8.72097 171.964 -6.76723 88.5762 -13.1693 -10.8214 -1.37261 67.7515 -4.6497 0.498417 28.4237 -0.0447307 1.02896 0.132359 7.86738 -90.1015 11.1393 0.21636 -0.223009 -0.531625 0.206339 -0.232321 -23.0668 0.273378 -0.147674 -3.05421 0.273378 -0.147681 89.3357 -30.6608 -107.81 37.8474 -6.72218 -3.9909 5.67629 -32.0343 -14.2782 -25.0603 -0.48921 -8.3491 -88.484 -52.2504 81.4148 -20.3369 14.1658 -12.3251 -6.16159 20.0911 -0.0150733 7.21295 -0.593906 -17.3169 1.02511 -2.6115 -1.77828 -5.12539 -2.32896 0.739645 
14.0557 101.564 18.3431 171.845 -81.9315 170.466 -172.757 -5.94405 90.4255 -11.4498 13.0228 0.502269 70.339 6.79199 -2.47851 18.819 -8.84782 8.59146 172.206 -6.73036 88.8832 -13.1881 -10.1012 -1.39453 67.8563 -4.58548 1.07701 28.6562 -0.127987 0.915706 0.139113 7.86029 -90.1107 11.1535 0.2255 -0.242364 -0.517456 0.214624 -0.252052 -23.0527 0.287918 -0.16338 -3.04004 0.287918 -0.163385 89.5372 -30.6756 -107.411 38.0359 -6.87635 -4.24831 5.8238 -33.424 -13.9909 -24.4378 -0.528016 -8.49204 -88.3745 -52.0948 81.547 -20.4962 14.0734 -12.4674 -6.23794 20.7565 -0.0151386 7.49307 -0.578306 -16.9548 1.09198 -2.58256 -1.93999 -4.86581 -2.27615 0.995513 
13.729 101.538 18.5724 172.033 -81.9202 170.618 -172.411 -6.15977 90.8166 -11.1538 12.9693 0.319413 70.3447 6.72857 -2.8832 19.1974 -8.52319 8.39593 172.285 -6.81254 89.0922 -13.3119 -10.2569 -1.39942 68.2312 -4.96553 0.294338 28.033 0.0320437 1.5083 0.162067 7.86421 -90.131 11.1457 0.26174 -0.286306 -0.525205 0.24889 -0.297556 -23.0604 0.335681 -0.1944 -3.0478 0.335687 -0.194408 89.5487 -30.5643 -107.431 38.0295 -6.99678 -4.12487 5.84006 -33.1211 -14.1631 -25.0152 -0.549013 -8.25957 -88.4449 -52.262 81.4741 -20.4267 14.1539 -12.5202 -6.20076 20.2517 -0.0150888 8.21227 -0.689786 -16.8852 1.13453 -2.53816 -1.52676 -5.05108 -2.28571 0.287364 
13.1739 101.538 18.9051 170.734 -81.9881 169.553 -172.004 -6.41554 91.5592 -10.695 13.5077 0.306183 70.341 6.6952 -3.18614 19.7388 -8.36082 8.74863 172.642 -7.18763 89.7378 -13.0892 -9.49008 -1.32662 68.5414 -5.04464 0.976614 27.6627 0.359288 0.761734 0.15497 7.84211 -90.1446 11.1899 0.241257 -0.31152 -0.481021 0.227313 -0.321844 -23.0162 0.323723 -0.224608 -3.00353 0.323726 -0.224608 89.3188 -30.7121 -107.823 38.1337 -6.88352 -4.08383 6.01026 -31.209 -13.9297 -24.5511 -0.470105 -8.31107 -88.5421 -52.1913 81.319 -20.301 13.6254 -12.2677 -6.18177 21.0277 -0.0151659 7.0027 -0.562237 -17.6389 0.890312 -2.6093 -1.45289 -4.98139 -2.36577 -0.112612 
